<svg width="64" height="64" viewBox="0 0 64 64" fill="none" xmlns="http://www.w3.org/2000/svg">
<g clip-path="url(#clip0)">
<path d="M56 50C60.19 50 63 47.19 63 43C63 38.811 60.19 34 56 34C56 23.525 46.475 16 36 16C26.729 16 18.652 22.211 17 31C17 31 15.767 31 15 31C9.762 31 6 35.762 6 41C6 46.238 9.762 50 15 50H56Z" stroke="white" stroke-width="3" stroke-miterlimit="10"/>
<path d="M29.999 16.752C27.793 15.028 25.017 14 22 14C14.82 14 9 19.82 9 27C9 29.577 9.707 30.979 11 33" stroke="white" stroke-width="3" stroke-miterlimit="10"/>
<path d="M6 27H0" stroke="white" stroke-width="3" stroke-miterlimit="10"/>
<path d="M22 11V5" stroke="white" stroke-width="3" stroke-miterlimit="10"/>
<path d="M10 15L4 9" stroke="white" stroke-width="3" stroke-miterlimit="10"/>
</g>
<defs>
<clipPath id="clip0">
<rect width="64" height="64" fill="white"/>
</clipPath>
</defs>
</svg>
