<svg width="64" height="64" viewBox="0 0 64 64" fill="none" xmlns="http://www.w3.org/2000/svg">
<g clip-path="url(#clip0)">
<path d="M56 50C60.19 50 63 47.19 63 43C63 38.811 60.19 34 56 34C56 23.525 46.475 16 36 16C26.729 16 18.652 22.211 17 31C17 31 15.768 31 15 31C9.762 31 6 35.762 6 41C6 46.238 9.762 50 15 50H56Z" stroke="white" stroke-width="3" stroke-miterlimit="10"/>
<path d="M24.957 20.001C22.646 16.392 18.604 14 14 14C13.174 14 12.369 14.085 11.586 14.233C12.477 15.629 13 17.283 13 19.063C13 24.034 8.971 28.063 4 28.063C2.954 28.063 1.954 27.875 1.02 27.547C1.119 29.915 1.842 32.123 3.043 33.999C4.061 35.589 5.414 36.942 7.004 37.959" stroke="white" stroke-width="3" stroke-miterlimit="10"/>
</g>
<defs>
<clipPath id="clip0">
<rect width="64" height="64" fill="white"/>
</clipPath>
</defs>
</svg>
