<svg width="79" height="49" viewBox="0 0 79 49" fill="none" xmlns="http://www.w3.org/2000/svg">
<g clip-path="url(#clip0)">
<path d="M55 48C59.565 48 63 44.565 63 40C63 35.435 59.565 31 55 31C55 19.586 45.414 11 34 11C23.898 11 14.8 17.423 13 27C13 27 11.835 27 11 27C5.292 27 1 32.292 1 38C1 43.708 5.292 48 11 48H55Z" stroke="white" stroke-width="3" stroke-miterlimit="10"/>
<path d="M62.5 38H68.5C73.065 38 78 34.565 78 30C78 25.435 74.565 21 70 21C70 9.586 59.914 1.5 48.5 1.5C39.9914 2.75004 36.8673 4.43443 32 10.5" stroke="white" stroke-width="3" stroke-miterlimit="10"/>
</g>
<defs>
<clipPath id="clip0">
<rect width="79" height="49" fill="white"/>
</clipPath>
</defs>
</svg>
