<svg width="64" height="64" viewBox="0 0 64 64" fill="none" xmlns="http://www.w3.org/2000/svg">
<g clip-path="url(#clip0)">
<path d="M56 45C60.19 45 63 42.19 63 38C63 33.811 60.19 29 56 29C56 18.525 46.475 11 36 11C26.729 11 18.652 17.211 17 26C17 26 15.768 26 15 26C9.762 26 6 30.762 6 36C6 41.238 9.762 45 15 45H56Z" stroke="white" stroke-width="3" stroke-miterlimit="10"/>
<path d="M24.957 15.001C22.646 11.392 18.604 9 14 9C13.174 9 12.369 9.085 11.586 9.233C12.477 10.629 13 12.283 13 14.063C13 19.034 8.97102 23.063 4.00002 23.063C2.95402 23.063 1.95402 22.875 1.02002 22.547C1.11902 24.915 1.84202 27.123 3.04302 28.999C4.06102 30.589 5.41402 31.942 7.00402 32.959" stroke="white" stroke-width="3" stroke-miterlimit="10"/>
<path d="M20 48V62" stroke="white" stroke-width="3" stroke-miterlimit="10"/>
<path d="M30 48V62" stroke="white" stroke-width="3" stroke-miterlimit="10"/>
<path d="M40 48V62" stroke="white" stroke-width="3" stroke-miterlimit="10"/>
<path d="M50 48V62" stroke="white" stroke-width="3" stroke-miterlimit="10"/>
</g>
<defs>
<clipPath id="clip0">
<rect width="64" height="64" fill="white"/>
</clipPath>
</defs>
</svg>
