<svg width="64" height="64" viewBox="0 0 64 64" fill="none" xmlns="http://www.w3.org/2000/svg">
<g clip-path="url(#clip0)">
<path d="M56 45C60.19 45 63 42.19 63 38C63 33.811 60.19 29 56 29C56 18.525 46.475 11 36 11C26.729 11 18.652 17.211 17 26C17 26 15.768 26 15 26C9.762 26 6 30.762 6 36C6 41.238 9.762 45 15 45H56Z" stroke="white" stroke-width="3" stroke-miterlimit="10"/>
<path d="M24.957 15.001C22.646 11.392 18.604 9 14 9C13.174 9 12.369 9.085 11.586 9.233C12.477 10.629 13 12.283 13 14.063C13 19.034 8.97099 23.063 3.99999 23.063C2.95399 23.063 1.95399 22.875 1.01999 22.547C1.11899 24.915 1.84199 27.123 3.04299 28.999C4.06099 30.589 5.41399 31.942 7.00399 32.959" stroke="white" stroke-width="3" stroke-miterlimit="10"/>
<path d="M15 60L14 62" stroke="white" stroke-width="3" stroke-miterlimit="10"/>
<path d="M25 60L24 62" stroke="white" stroke-width="3" stroke-miterlimit="10"/>
<path d="M35 60L34 62" stroke="white" stroke-width="3" stroke-miterlimit="10"/>
<path d="M45 60L44 62" stroke="white" stroke-width="3" stroke-miterlimit="10"/>
<path d="M19 48L18 50" stroke="white" stroke-width="3" stroke-miterlimit="10"/>
<path d="M29 48L28 50" stroke="white" stroke-width="3" stroke-miterlimit="10"/>
<path d="M39 48L38 50" stroke="white" stroke-width="3" stroke-miterlimit="10"/>
<path d="M49 48L48 50" stroke="white" stroke-width="3" stroke-miterlimit="10"/>
<path d="M11 54L10 56" stroke="white" stroke-width="3" stroke-miterlimit="10"/>
<path d="M21 54L20 56" stroke="white" stroke-width="3" stroke-miterlimit="10"/>
<path d="M31 54L30 56" stroke="white" stroke-width="3" stroke-miterlimit="10"/>
<path d="M41 54L40 56" stroke="white" stroke-width="3" stroke-miterlimit="10"/>
</g>
<defs>
<clipPath id="clip0">
<rect width="64" height="64" fill="white"/>
</clipPath>
</defs>
</svg>
